<?xml version="1.0" encoding="UTF-8" standalone="no"?>
<!DOCTYPE svg PUBLIC "-//W3C//DTD SVG 1.1//EN" "http://www.w3.org/Graphics/SVG/1.1/DTD/svg11.dtd">
<svg width="100%" height="100%" viewBox="0 0 1650 1650" version="1.1" xmlns="http://www.w3.org/2000/svg" xmlns:xlink="http://www.w3.org/1999/xlink" xml:space="preserve" xmlns:serif="http://www.serif.com/" style="fill-rule:evenodd;clip-rule:evenodd;stroke-linejoin:round;stroke-miterlimit:2;">
    <g>
        <path d="M278.332,753.201c71.083,0 146.346,-41.813 146.346,-127.828c0,-60.331 -37.034,-93.781 -111.103,-123.648l-28.672,-11.349c-46.592,-17.92 -59.136,-35.242 -59.136,-57.343c0,-28.075 22.699,-43.008 53.163,-43.008c31.061,-0 54.357,16.725 72.277,50.773l60.927,-34.048c-19.114,-44.8 -63.317,-89.599 -136.191,-89.599c-71.68,-0 -130.815,44.202 -130.815,115.284c-0,64.512 47.786,96.768 105.727,120.063l26.88,10.155c43.008,17.323 61.525,31.061 61.525,62.122c-0,37.035 -28.672,54.357 -62.122,54.357c-43.008,0 -69.888,-29.269 -81.834,-62.122l-66.304,30.464c14.933,62.122 75.263,105.727 149.332,105.727Z" style="fill-rule:nonzero;"/>
        <path d="M462.31,747.228l80.042,-0l-0,-169.642c-0,-45.397 25.088,-75.263 66.303,-75.263c41.813,-0 66.304,29.866 66.304,75.263l-0,169.642l80.042,-0l0,-182.783c0,-94.378 -53.76,-133.802 -117.674,-133.802c-46.591,0 -77.653,20.907 -94.975,48.384l-0,-42.411l-80.042,0l-0,310.612Z" style="fill-rule:nonzero;"/>
        <path d="M942.563,753.201c55.551,0 91.391,-30.464 99.156,-47.786l1.792,-0l0,41.813l80.042,-0l0,-310.612l-80.042,0l0,41.814l-1.792,-0c-7.765,-17.323 -43.605,-47.787 -99.156,-47.787c-72.277,0 -149.333,53.76 -149.333,161.279c0,107.519 77.056,161.279 149.333,161.279Zm-70.485,-161.279c-0,-57.941 41.813,-89.599 86.612,-89.599c44.8,-0 86.613,31.061 86.613,89.599c0,58.538 -41.813,89.599 -86.613,89.599c-44.799,0 -86.612,-31.658 -86.612,-89.599Z" style="fill-rule:nonzero;"/>
        <path d="M1176.72,860.72l80.042,0l-0,-155.305l1.792,-0c7.765,17.322 43.605,47.786 99.156,47.786c72.277,0 149.333,-53.76 149.333,-161.279c-0,-107.519 -77.056,-161.279 -149.333,-161.279c-55.551,0 -91.391,30.464 -99.156,47.787l-1.792,-0l-0,-41.814l-80.042,0l-0,424.104Zm78.25,-268.798c-0,-58.538 41.813,-89.599 86.613,-89.599c44.799,-0 86.612,31.658 86.612,89.599c0,57.941 -41.813,89.599 -86.612,89.599c-44.8,0 -86.613,-31.061 -86.613,-89.599Z" style="fill-rule:nonzero;"/>
        <path d="M1123.19,1326.88l-0,-537.357l-80.042,-0l-0,268.559l-1.792,-0c-7.765,-17.323 -43.605,-47.786 -99.157,-47.786c-72.277,-0 -149.332,53.759 -149.332,161.278c-0,107.52 77.055,161.279 149.332,161.279c55.552,0 91.392,-30.463 99.157,-47.786l1.792,0l-0,41.813l80.042,0Zm-251.476,-155.306c0,-57.94 41.813,-89.599 86.613,-89.599c44.8,0 86.613,31.061 86.613,89.599c-0,58.539 -41.813,89.6 -86.613,89.6c-44.8,-0 -86.613,-31.659 -86.613,-89.6Z" style="fill-rule:nonzero;"/>
        <path d="M1176.36,1326.88l80.042,0l0,-310.611l-80.042,-0l0,310.611Zm0,-353.619l80.042,0l0,-70.485l-80.042,0l0,70.485Z" style="fill-rule:nonzero;"/>
        <path d="M1309.56,1326.88l80.042,0l-0,-135.594c-0,-62.122 37.632,-103.935 97.962,-103.935c7.168,0 13.141,0.597 20.309,1.792l0,-76.458c-7.168,-1.792 -13.739,-2.389 -20.907,-2.389c-56.148,-0 -86.612,38.826 -97.364,86.612l-0,-80.639l-80.042,-0l-0,310.611Z" style="fill-rule:nonzero;"/>
    </g>
</svg>
