<?xml version="1.0" encoding="UTF-8" standalone="no"?><!DOCTYPE svg PUBLIC "-//W3C//DTD SVG 1.1//EN" "http://www.w3.org/Graphics/SVG/1.1/DTD/svg11.dtd">
<svg width="100%" height="100%" viewBox="0 0 1650 1650" version="1.1"
  xmlns="http://www.w3.org/2000/svg"
  xmlns:xlink="http://www.w3.org/1999/xlink" xml:space="preserve" role="img"
  style="fill-rule:evenodd;clip-rule:evenodd;stroke-linejoin:round;stroke-miterlimit:2;">
  <path d="M280.937,868.38c74.375,0 153.125,-43.75 153.125,-133.75c0,-63.125 -38.75,-98.125 -116.25,-129.375l-30,-11.875c-48.75,-18.75 -61.875,-36.875 -61.875,-60c0,-29.375 23.75,-45 55.625,-45c32.5,0 56.875,17.5 75.625,53.125l63.75,-35.625c-20,-46.875 -66.25,-93.75 -142.5,-93.75c-75,0 -136.875,46.25 -136.875,120.625c0,67.5 50,101.25 110.625,125.625l28.125,10.625c45,18.125 64.375,32.5 64.375,65c0,38.75 -30,56.875 -65,56.875c-45,0 -73.125,-30.625 -85.625,-65l-69.375,31.875c15.625,65 78.75,110.625 156.25,110.625Z" style="fill-rule:nonzero;"/>
  <path d="M459.688,862.13l83.75,0l-0,-177.5c-0,-47.5 26.25,-78.75 69.375,-78.75c43.75,0 69.375,31.25 69.375,78.75l-0,177.5l83.75,0l-0,-191.25c-0,-98.75 -56.25,-140 -123.125,-140c-48.75,0 -81.25,21.875 -99.375,50.625l-0,-44.375l-83.75,0l-0,325Z" style="fill-rule:nonzero;"/>
  <path d="M948.437,868.38c58.125,0 95.625,-31.875 103.75,-50l1.875,0l0,43.75l83.75,0l0,-325l-83.75,0l0,43.75l-1.875,0c-8.125,-18.125 -45.625,-50 -103.75,-50c-75.625,0 -156.25,56.25 -156.25,168.75c0,112.5 80.625,168.75 156.25,168.75Zm-73.75,-168.75c0,-60.625 43.75,-93.75 90.625,-93.75c46.875,0 90.625,32.5 90.625,93.75c0,61.25 -43.75,93.75 -90.625,93.75c-46.875,0 -90.625,-33.125 -90.625,-93.75Z" style="fill-rule:nonzero;"/>
  <path d="M1179.69,980.88l83.749,0l0,-162.5l1.875,0c8.125,18.125 45.625,50 103.75,50c75.625,0 156.25,-56.25 156.25,-168.75c0,-112.5 -80.625,-168.75 -156.25,-168.75c-58.125,0 -95.625,31.875 -103.75,50l-1.875,0l0,-43.75l-83.75,0l0,443.75Zm81.875,-281.25c0,-61.25 43.75,-93.75 90.625,-93.75c46.875,0 90.625,33.125 90.625,93.75c0,60.625 -43.75,93.75 -90.625,93.75c-46.875,0 -90.625,-32.5 -90.625,-93.75Z" style="fill-rule:nonzero;"/>
  <path d="M543.608,1231.63l0,-443.04l-83.616,-0l0,162.24l-1.872,-0c-8.112,-18.096 -45.552,-49.92 -103.584,-49.92c-75.504,-0 -156,56.16 -156,168.48c0,112.32 80.496,168.48 156,168.48c58.032,-0 95.472,-31.824 103.584,-49.92l1.872,-0l0,43.68l83.616,-0Zm-262.704,-162.24c0,-60.528 43.68,-93.6 90.48,-93.6c46.8,-0 90.48,32.448 90.48,93.6c0,61.152 -43.68,93.6 -90.48,93.6c-46.8,-0 -90.48,-33.072 -90.48,-93.6Z" style="fill-rule:nonzero;"/>
  <path d="M571.064,1231.63l83.616,-0l0,-324.48l-83.616,-0l0,324.48Zm0,-369.408l83.616,-0l0,-73.632l-83.616,-0l0,73.632Z" style="fill-rule:nonzero;"/>
  <path d="M682.136,1231.63l83.616,-0l0,-141.648c0,-64.896 39.313,-108.576 102.336,-108.576c7.488,-0 13.728,0.624 21.216,1.872l0,-79.872c-7.488,-1.872 -14.352,-2.496 -21.84,-2.496c-58.656,-0 -90.48,40.56 -101.712,90.48l0,-84.24l-83.616,-0l0,324.48Z" style="fill-rule:nonzero;"/>
</svg>